<svg width="15" height="18" viewBox="0 0 15 18" fill="none" xmlns="http://www.w3.org/2000/svg">
<path d="M13.2429 0.404541H1.75715C1.52566 0.405103 1.29655 0.451291 1.08291 0.540465C0.869283 0.629639 0.675324 0.760049 0.51213 0.924238C0.348937 1.08843 0.219708 1.28317 0.131834 1.49734C0.0439609 1.71151 -0.000833806 1.9409 1.1751e-05 2.1724V13.7588C-0.000833806 13.9903 0.0439609 14.2197 0.131834 14.4339C0.219708 14.648 0.348937 14.8428 0.51213 15.007C0.675324 15.1712 0.869283 15.3016 1.08291 15.3908C1.29655 15.4799 1.52566 15.5261 1.75715 15.5267H11.4772L11.0229 13.941L12.12 14.9588L13.1572 15.9188L15 17.5474V2.1724C15.0009 1.9409 14.9561 1.71151 14.8682 1.49734C14.7803 1.28317 14.6511 1.08843 14.4879 0.924238C14.3247 0.760049 14.1307 0.629639 13.9171 0.540465C13.7035 0.451291 13.4744 0.405103 13.2429 0.404541V0.404541ZM9.9343 11.601C9.9343 11.601 9.62573 11.2324 9.36858 10.9045C9.99035 10.7593 10.5407 10.3987 10.9222 9.88668C10.6137 10.0919 10.2831 10.2616 9.93644 10.3924C9.53769 10.5626 9.12066 10.6863 8.69358 10.761C7.95948 10.8961 7.20662 10.8932 6.47358 10.7524C6.04323 10.6682 5.62147 10.5448 5.21358 10.3838C4.86915 10.2503 4.54011 10.08 4.23215 9.87597C4.59897 10.3777 5.12954 10.7354 5.73215 10.8874C5.47501 11.2131 5.15787 11.5988 5.15787 11.5988C4.6487 11.6126 4.14396 11.5009 3.68808 11.2737C3.23221 11.0466 2.83917 10.7108 2.54358 10.296C2.57074 8.55846 2.99204 6.8498 3.77573 5.29883C4.46662 4.75626 5.30902 4.44176 6.18644 4.39883L6.27215 4.50168C5.44736 4.7058 4.67767 5.08918 4.01787 5.62454C4.01787 5.62454 4.20644 5.52168 4.52358 5.37597C5.14038 5.09451 5.79777 4.91226 6.47144 4.83597C6.51942 4.82604 6.56818 4.8203 6.61715 4.81883C7.19154 4.74399 7.77283 4.73823 8.34858 4.80168C9.25401 4.9051 10.1305 5.18463 10.9286 5.62454C10.3022 5.11469 9.57477 4.74365 8.7943 4.53597L8.9143 4.39883C9.79172 4.44176 10.6341 4.75626 11.325 5.29883C12.1087 6.8498 12.53 8.55846 12.5572 10.296C12.2594 10.7107 11.8648 11.0464 11.4076 11.2739C10.9505 11.5013 10.4447 11.6136 9.9343 11.601Z" fill="#757185"/>
</svg>
