<svg width="17" height="18" viewBox="0 0 17 18" fill="none" xmlns="http://www.w3.org/2000/svg">
<path d="M11.8925 0.833252H5.10674C2.48814 0.833252 0.357422 2.96465 0.357422 5.58393V12.3696C0.357422 14.9883 2.48882 17.119 5.1081 17.119H11.8938C14.5124 17.119 16.6431 14.9876 16.6431 12.3683V5.58257C16.6431 2.96397 14.5117 0.833252 11.8925 0.833252ZM8.50028 13.0475C6.25489 13.0475 4.42885 11.2215 4.42885 8.97611C4.42885 6.73072 6.25489 4.90468 8.50028 4.90468C10.7457 4.90468 12.5717 6.73072 12.5717 8.97611C12.5717 11.2215 10.7457 13.0475 8.50028 13.0475ZM13.2503 4.90468C12.8757 4.90468 12.5717 4.60068 12.5717 4.22611C12.5717 3.85154 12.8757 3.54754 13.2503 3.54754C13.6249 3.54754 13.9289 3.85154 13.9289 4.22611C13.9289 4.60068 13.6249 4.90468 13.2503 4.90468Z" fill="#757185"/>
</svg>
