<svg width="149" height="24" viewBox="0 0 149 24" fill="none" xmlns="http://www.w3.org/2000/svg">
<path d="M4.01232 18.768V14.592H6.89232C7.64432 14.592 8.31632 14.488 8.90832 14.28C9.51632 14.056 10.0283 13.744 10.4443 13.344C10.8603 12.928 11.1803 12.432 11.4043 11.856C11.6283 11.264 11.7403 10.6 11.7403 9.864C11.7403 9.096 11.6283 8.424 11.4043 7.848C11.1803 7.256 10.8603 6.768 10.4443 6.384C10.0283 5.984 9.51632 5.688 8.90832 5.496C8.31632 5.288 7.64432 5.184 6.89232 5.184H4.01232V1.008H6.70032C8.28432 1.008 9.66832 1.232 10.8523 1.68C12.0523 2.128 13.0523 2.752 13.8523 3.552C14.6523 4.336 15.2523 5.248 15.6523 6.288C16.0523 7.328 16.2523 8.432 16.2523 9.6V10.128C16.2523 11.2 16.0523 12.256 15.6523 13.296C15.2523 14.32 14.6523 15.248 13.8523 16.08C13.0523 16.896 12.0523 17.552 10.8523 18.048C9.66832 18.528 8.28432 18.768 6.70032 18.768H4.01232ZM0.0283203 18.768V1.008H4.49232V18.768H0.0283203Z" fill="white"/>
<path d="M24.732 19.152C23.612 19.152 22.62 18.96 21.756 18.576C20.892 18.192 20.164 17.672 19.572 17.016C18.98 16.36 18.524 15.624 18.204 14.808C17.9 13.992 17.748 13.152 17.748 12.288V11.808C17.748 10.912 17.9 10.056 18.204 9.24C18.524 8.408 18.972 7.672 19.548 7.032C20.14 6.392 20.86 5.888 21.708 5.52C22.556 5.136 23.516 4.944 24.588 4.944C26.012 4.944 27.22 5.264 28.212 5.904C29.204 6.544 29.964 7.392 30.492 8.448C31.02 9.488 31.284 10.624 31.284 11.856V13.248H19.572V10.896H28.764L27.252 11.952C27.252 11.2 27.148 10.568 26.94 10.056C26.748 9.528 26.452 9.128 26.052 8.856C25.668 8.584 25.18 8.448 24.588 8.448C24.012 8.448 23.508 8.584 23.076 8.856C22.66 9.112 22.34 9.512 22.116 10.056C21.892 10.584 21.78 11.256 21.78 12.072C21.78 12.808 21.884 13.448 22.092 13.992C22.3 14.52 22.62 14.928 23.052 15.216C23.484 15.504 24.044 15.648 24.732 15.648C25.34 15.648 25.836 15.544 26.22 15.336C26.62 15.128 26.9 14.848 27.06 14.496H31.044C30.852 15.392 30.468 16.192 29.892 16.896C29.332 17.6 28.612 18.152 27.732 18.552C26.868 18.952 25.868 19.152 24.732 19.152Z" fill="white"/>
<path d="M38.8423 19.104C36.9223 19.104 35.4103 18.712 34.3063 17.928C33.2023 17.128 32.6103 16.008 32.5303 14.568H36.3703C36.4343 14.968 36.6823 15.312 37.1143 15.6C37.5463 15.888 38.1543 16.032 38.9383 16.032C39.4983 16.032 39.9783 15.952 40.3783 15.792C40.7943 15.616 41.0023 15.336 41.0023 14.952C41.0023 14.616 40.8423 14.344 40.5223 14.136C40.2023 13.912 39.6183 13.76 38.7703 13.68L37.8583 13.584C36.1623 13.408 34.9143 12.944 34.1143 12.192C33.3143 11.44 32.9143 10.496 32.9143 9.36C32.9143 8.384 33.1543 7.584 33.6343 6.96C34.1143 6.32 34.7783 5.84 35.6263 5.52C36.4743 5.2 37.4423 5.04 38.5303 5.04C40.3063 5.04 41.7383 5.432 42.8263 6.216C43.9143 6.984 44.4903 8.096 44.5543 9.552H40.7143C40.6503 9.152 40.4343 8.816 40.0663 8.544C39.6983 8.256 39.1703 8.112 38.4823 8.112C37.9863 8.112 37.5783 8.2 37.2583 8.376C36.9543 8.552 36.8023 8.8 36.8023 9.12C36.8023 9.456 36.9463 9.704 37.2343 9.864C37.5383 10.024 38.0183 10.144 38.6743 10.224L39.5863 10.32C41.2823 10.496 42.5863 10.968 43.4983 11.736C44.4263 12.488 44.8903 13.48 44.8903 14.712C44.8903 15.624 44.6423 16.408 44.1463 17.064C43.6663 17.72 42.9703 18.224 42.0583 18.576C41.1623 18.928 40.0903 19.104 38.8423 19.104Z" fill="white"/>
<path d="M47.6869 18.672V5.424H52.0549V18.672H47.6869ZM46.0069 8.592V5.424H52.0549V8.592H46.0069ZM49.4869 4.368C48.6869 4.368 48.0949 4.168 47.7109 3.768C47.3429 3.352 47.1589 2.824 47.1589 2.184C47.1589 1.544 47.3429 1.024 47.7109 0.624001C48.0949 0.208 48.6789 0 49.4629 0C50.2629 0 50.8469 0.208 51.2149 0.624001C51.5829 1.024 51.7669 1.544 51.7669 2.184C51.7669 2.824 51.5829 3.352 51.2149 3.768C50.8469 4.168 50.2709 4.368 49.4869 4.368Z" fill="white"/>
<path d="M60.57 23.976C59.914 23.976 59.234 23.952 58.53 23.904C57.842 23.856 57.218 23.792 56.658 23.712V20.064C57.218 20.128 57.842 20.184 58.53 20.232C59.218 20.296 59.85 20.328 60.426 20.328C61.418 20.328 62.226 20.224 62.85 20.016C63.49 19.808 63.962 19.488 64.266 19.056C64.57 18.624 64.722 18.072 64.722 17.4V14.712L65.394 13.272C65.362 14.392 65.146 15.368 64.746 16.2C64.346 17.016 63.77 17.648 63.018 18.096C62.282 18.544 61.386 18.768 60.33 18.768C59.434 18.768 58.626 18.608 57.906 18.288C57.186 17.968 56.57 17.52 56.058 16.944C55.562 16.352 55.178 15.656 54.906 14.856C54.634 14.056 54.498 13.184 54.498 12.24V11.664C54.498 10.72 54.642 9.848 54.93 9.048C55.218 8.232 55.634 7.528 56.178 6.936C56.722 6.328 57.362 5.864 58.098 5.544C58.85 5.208 59.682 5.04 60.594 5.04C61.65 5.04 62.562 5.28 63.33 5.76C64.098 6.224 64.698 6.904 65.13 7.8C65.562 8.696 65.794 9.784 65.826 11.064L65.346 11.232V5.424H68.802V17.112C68.802 18.744 68.498 20.064 67.89 21.072C67.282 22.08 66.362 22.816 65.13 23.28C63.914 23.744 62.394 23.976 60.57 23.976ZM61.794 15.168C62.322 15.168 62.794 15.048 63.21 14.808C63.642 14.568 63.986 14.224 64.242 13.776C64.498 13.312 64.626 12.76 64.626 12.12V11.544C64.626 10.92 64.49 10.392 64.218 9.96C63.962 9.528 63.618 9.2 63.186 8.976C62.754 8.752 62.29 8.64 61.794 8.64C61.218 8.64 60.706 8.776 60.258 9.048C59.826 9.32 59.482 9.704 59.226 10.2C58.986 10.696 58.866 11.28 58.866 11.952C58.866 12.624 58.986 13.2 59.226 13.68C59.482 14.16 59.826 14.528 60.258 14.784C60.706 15.04 61.218 15.168 61.794 15.168Z" fill="white"/>
<path d="M71.8363 18.672V5.424H75.2923V11.112H75.1003C75.1003 9.736 75.2763 8.6 75.6283 7.704C75.9803 6.792 76.5003 6.112 77.1883 5.664C77.8923 5.216 78.7403 4.992 79.7323 4.992H79.9243C81.4283 4.992 82.5883 5.496 83.4043 6.504C84.2363 7.496 84.6523 9.024 84.6523 11.088V18.672H80.2843V10.968C80.2843 10.36 80.1003 9.864 79.7323 9.48C79.3803 9.08 78.8923 8.88 78.2683 8.88C77.6443 8.88 77.1403 9.08 76.7563 9.48C76.3883 9.864 76.2043 10.376 76.2043 11.016V18.672H71.8363Z" fill="white"/>
<path d="M93.8023 19.152C92.6823 19.152 91.6903 18.96 90.8263 18.576C89.9623 18.192 89.2343 17.672 88.6423 17.016C88.0503 16.36 87.5943 15.624 87.2743 14.808C86.9703 13.992 86.8183 13.152 86.8183 12.288V11.808C86.8183 10.912 86.9703 10.056 87.2743 9.24C87.5943 8.408 88.0423 7.672 88.6183 7.032C89.2103 6.392 89.9303 5.888 90.7783 5.52C91.6263 5.136 92.5863 4.944 93.6583 4.944C95.0823 4.944 96.2903 5.264 97.2823 5.904C98.2743 6.544 99.0343 7.392 99.5623 8.448C100.09 9.488 100.354 10.624 100.354 11.856V13.248H88.6423V10.896H97.8343L96.3223 11.952C96.3223 11.2 96.2183 10.568 96.0103 10.056C95.8183 9.528 95.5223 9.128 95.1223 8.856C94.7383 8.584 94.2503 8.448 93.6583 8.448C93.0823 8.448 92.5783 8.584 92.1463 8.856C91.7303 9.112 91.4103 9.512 91.1863 10.056C90.9623 10.584 90.8503 11.256 90.8503 12.072C90.8503 12.808 90.9543 13.448 91.1623 13.992C91.3703 14.52 91.6903 14.928 92.1223 15.216C92.5543 15.504 93.1143 15.648 93.8023 15.648C94.4103 15.648 94.9063 15.544 95.2903 15.336C95.6903 15.128 95.9703 14.848 96.1303 14.496H100.114C99.9223 15.392 99.5383 16.192 98.9623 16.896C98.4023 17.6 97.6823 18.152 96.8023 18.552C95.9383 18.952 94.9383 19.152 93.8023 19.152Z" fill="white"/>
<path d="M102.657 18.672V5.424H106.113V11.184H106.065C106.065 9.328 106.449 7.872 107.217 6.816C108.001 5.76 109.121 5.232 110.577 5.232H111.105V8.976H110.097C109.121 8.976 108.361 9.24 107.817 9.768C107.289 10.296 107.025 11.056 107.025 12.048V18.672H102.657Z" fill="white"/>
<path d="M116.335 18.672L121.951 1.152H129.103L134.911 18.672H130.303L125.791 4.272L127.063 4.752H123.895L125.191 4.272L120.799 18.672H116.335ZM120.919 14.616L122.263 10.968H128.911L130.255 14.616H120.919Z" fill="white"/>
<path d="M137.312 18.672V5.424H141.68V18.672H137.312ZM135.632 8.592V5.424H141.68V8.592H135.632ZM139.112 4.368C138.312 4.368 137.72 4.168 137.336 3.768C136.968 3.352 136.784 2.824 136.784 2.184C136.784 1.544 136.968 1.024 137.336 0.624001C137.72 0.208 138.304 0 139.088 0C139.888 0 140.472 0.208 140.84 0.624001C141.208 1.024 141.392 1.544 141.392 2.184C141.392 2.824 141.208 3.352 140.84 3.768C140.472 4.168 139.896 4.368 139.112 4.368Z" fill="white"/>
<path d="M144.267 18.672V13.92H148.971V18.672H144.267Z" fill="white"/>
</svg>
