<svg width="19" height="16" viewBox="0 0 19 16" fill="none" xmlns="http://www.w3.org/2000/svg">
<path d="M18.0367 1.20948C18.0229 1.14622 17.9926 1.08774 17.9488 1.04002C17.9051 0.992306 17.8494 0.957057 17.7876 0.937874C17.5625 0.893479 17.3296 0.910126 17.1131 0.986088C17.1131 0.986088 2.09328 6.38448 1.2356 6.98234C1.05025 7.11091 0.988638 7.18537 0.958102 7.27377C0.809709 7.69912 1.2715 7.88662 1.2715 7.88662L5.14257 9.14823C5.20796 9.15953 5.27507 9.1555 5.33864 9.13645C6.21935 8.58037 14.1988 3.54145 14.6601 3.37216C14.7324 3.35019 14.786 3.37216 14.7742 3.42573C14.5856 4.0718 7.69471 10.1956 7.65667 10.2331C7.63819 10.2482 7.62365 10.2676 7.61432 10.2897C7.60499 10.3117 7.60114 10.3356 7.6031 10.3595L7.2431 14.1368C7.2431 14.1368 7.09203 15.3154 8.26846 14.1368C9.10257 13.3016 9.90292 12.6106 10.3042 12.2747C11.6354 13.1934 13.0679 14.2097 13.6856 14.7389C13.7892 14.8396 13.9121 14.9183 14.0469 14.9704C14.1816 15.0225 14.3255 15.0469 14.4699 15.0422C15.0592 15.0197 15.2199 14.3752 15.2199 14.3752C15.2199 14.3752 17.9563 3.36359 18.0485 1.8877C18.057 1.74305 18.0694 1.65037 18.0704 1.55127C18.0753 1.43632 18.0639 1.32125 18.0367 1.20948Z" fill="#757185"/>
</svg>
