<svg width="19" height="14" viewBox="0 0 19 14" fill="none" xmlns="http://www.w3.org/2000/svg">
<path d="M18.0714 1.67268C17.4286 1.94053 16.7857 2.15482 16.0357 2.20839C16.7857 1.77982 17.3214 1.08339 17.5893 0.27982C16.8929 0.708391 16.1429 0.976249 15.3393 1.13696C14.6964 0.440534 13.7857 0.0119629 12.8214 0.0119629C10.8929 0.0119629 9.28572 1.56553 9.28572 3.54768C9.28572 3.81553 9.33929 4.08339 9.39286 4.35125C6.44643 4.19053 3.875 2.79768 2.10714 0.65482C1.78571 1.19053 1.625 1.77982 1.625 2.42268C1.625 3.65482 2.26786 4.72625 3.17857 5.36911C2.58929 5.36911 2.05357 5.20839 1.57143 4.94053V4.99411C1.57143 6.70839 2.80357 8.10125 4.41071 8.42268C4.08929 8.47625 3.82143 8.52982 3.5 8.52982C3.28571 8.52982 3.07143 8.52982 2.85714 8.47625C3.28571 9.86911 4.625 10.887 6.125 10.9405C4.94643 11.9048 3.39286 12.4405 1.73214 12.4405C1.46429 12.4405 1.14286 12.4405 0.875 12.387C2.48214 13.3512 4.35714 13.9405 6.33929 13.9405C12.8214 13.9405 16.3571 8.58339 16.3571 3.92268C16.3571 3.76196 16.3571 3.60125 16.3571 3.49411C17 2.95839 17.5893 2.36911 18.0714 1.67268Z" fill="#757185"/>
</svg>
